Coordinates
version=1
nRows=22
nColumns=26
inDegrees=yes

Units are S.I. units (second, meters, Newtons, ...)
If the header above contains a line with 'inDegrees', this indicates whether rotational values are in degrees (yes) or radians (no).

endheader
time	pelvis_tilt	pelvis_list	pelvis_rotation	pelvis_tx	pelvis_ty	pelvis_tz	hip_flexion_r	hip_adduction_r	hip_rotation_r	knee_angle_r	knee_angle_r_beta	ankle_angle_r	subtalar_angle_r	mtp_angle_r	hip_flexion_l	hip_adduction_l	hip_rotation_l	knee_angle_l	knee_angle_l_beta	ankle_angle_l	subtalar_angle_l	mtp_angle_l	lumbar_extension	lumbar_bending	lumbar_rotation
      0.36000000	     -1.35101320	    -10.00594527	     -8.61798854	      0.53228888	      0.86528174	     -0.19468104	     21.46118390	     17.35391330	     -0.84167297	     46.59564448	      0.81324741	     18.74305671	     -8.74400058	      0.00000000	      3.38367257	     -9.12173195	     -2.04121124	     96.34820007	      1.68159332	    -13.97447597	    -17.22529442	      0.00000000	    -21.06322673	     10.95096657	      1.89870836
      0.36500000	     -1.24799123	     -9.94559682	     -8.42521850	      0.54493414	      0.86453801	     -0.19495118	     20.54651118	     17.21092363	     -0.67350661	     46.92833602	      0.81905398	     19.70652413	     -8.66649571	      0.00000000	      4.99206136	     -9.21241096	     -1.53455382	     97.99783817	      1.71038494	    -12.95147680	    -17.24229457	      0.00000000	    -21.18662671	     10.96342357	      2.42798698
      0.37000000	     -1.02911117	     -9.95790775	     -7.93121675	      0.55708577	      0.86428831	     -0.19541130	     19.42302821	     17.03582418	     -0.79382061	     46.96233357	      0.81964735	     20.52644117	     -8.68845676	      0.00000000	      6.68008903	     -9.30148253	     -0.77001127	     99.53430702	      1.73720138	    -12.34758726	    -17.56507673	      0.00000000	    -21.44386219	     11.08938326	      2.74374483
      0.37500000	     -0.80668100	     -9.88385575	     -7.49241824	      0.56953530	      0.86420016	     -0.19568581	     18.15402492	     16.80307679	     -0.84281741	     46.85849286	      0.81783498	     21.49633798	     -8.19003699	      0.00000000	      8.24168420	     -9.28431172	     -0.05124530	    100.88498857	      1.76077522	    -10.90499839	    -17.36900754	      0.00000000	    -21.61117370	     11.08894567	      3.08711593
      0.38000000	     -0.62150933	     -9.71096888	     -7.26428732	      0.58201599	      0.86424275	     -0.19569529	     16.86404872	     16.53843216	     -0.65286244	     46.64447421	      0.81409965	     22.21246261	     -8.17666834	      0.00000000	      9.82371158	     -9.22449108	      0.35436536	    102.01207599	      1.78044660	    -10.37849258	    -17.64201527	      0.00000000	    -21.76925270	     10.90956433	      3.52934719
      0.38500000	     -0.50590555	     -9.58025156	     -6.73207742	      0.59468814	      0.86476306	     -0.19594413	     15.54952091	     16.22905074	     -0.76847538	     46.17419360	      0.80589171	     22.99397762	     -7.42137758	      0.00000000	     11.59633473	     -9.10905741	      1.07732510	    103.04870479	      1.79853919	     -9.14471932	    -17.34019589	      0.00000000	    -21.79874435	     10.90696015	      3.75904555
      0.39000000	     -0.41364012	     -9.25605956	     -6.33510168	      0.60753530	      0.86554377	     -0.19598830	     14.16876713	     15.77264409	     -0.64907992	     45.58465986	      0.79560240	     23.30201876	     -7.36009045	      0.00000000	     13.31427002	     -8.71922226	      1.65295058	    103.76219750	      1.81099199	     -8.60907715	    -17.53561437	      0.00000000	    -21.73407093	     10.59005857	      4.05100165
      0.39500000	     -0.54696596	     -8.92120888	     -5.86067791	      0.62056693	      0.86621063	     -0.19625541	     12.95177110	     15.31495504	     -0.65507475	     44.79501049	      0.78182042	     23.77984832	     -7.10174549	      0.00000000	     15.27935676	     -8.25432816	      2.33811855	    104.38313387	      1.82182937	     -7.87989942	    -17.42911297	      0.00000000	    -21.41023526	     10.35104848	      4.17084165
      0.40000000	     -0.67453410	     -8.39239703	     -5.57124287	      0.63344033	      0.86718347	     -0.19648204	     11.77533320	     14.69577538	     -0.44265907	     44.05529742	      0.76890999	     24.05681597	     -6.95934765	      0.00000000	     17.19605637	     -7.50812491	      2.71797007	    104.72547621	      1.82780437	     -7.36321930	    -17.34908847	      0.00000000	    -21.11944627	      9.86112401	      4.47943431
      0.40500000	     -0.87812292	     -8.02809547	     -5.23345032	      0.64617327	      0.86855471	     -0.19636925	     10.55591028	     14.31938968	     -0.18625812	     42.99056290	      0.75032687	     24.06579353	     -6.78289119	      0.00000000	     19.15286952	     -6.96799226	      3.18060485	    104.95624571	      1.83183206	     -6.76582471	    -17.52619852	      0.00000000	    -20.81710764	      9.49813631	      4.84098916
      0.41000000	     -1.19422993	     -7.52987937	     -4.94131631	      0.65950840	      0.86954383	     -0.19662833	      9.45674023	     13.78513044	      0.00800184	     42.01425640	      0.73328711	     24.11491874	     -6.80274914	      0.00000000	     21.13774370	     -6.24504857	      3.44315975	    105.00245139	      1.83263850	     -6.13579766	    -17.44296156	      0.00000000	    -20.25045037	      9.07802812	      5.14950244
      0.41500000	     -1.58311801	     -7.16249162	     -4.72684780	      0.67278394	      0.87092195	     -0.19656980	      8.37871825	     13.51880234	      0.58531096	     40.84034764	      0.71279853	     23.68059684	     -7.36227370	      0.00000000	     23.12427543	     -5.75835574	      3.65453767	    104.89037572	      1.83068241	     -4.84848080	    -16.91255482	      0.00000000	    -19.68155694	      8.71234526	      5.58575966
      0.42000000	     -1.92621489	     -6.59796149	     -4.42260408	      0.68608685	      0.87237371	     -0.19665671	      7.27196477	     12.90641303	      0.75874070	     39.72688673	      0.69336498	     23.39653267	     -7.16317503	      0.00000000	     24.96345927	     -4.88618053	      3.88942201	    104.44159116	      1.82284964	     -4.53749741	    -16.81583061	      0.00000000	    -19.13097005	      8.15470860	      5.93521034
      0.42500000	     -2.30140363	     -6.04289595	     -4.26931090	      0.69946316	      0.87414388	     -0.19667865	      6.16993390	     12.33620707	      1.09289070	     38.52113107	      0.67232057	     23.01450612	     -7.00662105	      0.00000000	     26.85757317	     -4.13044148	      3.79199346	    104.00759197	      1.81527493	     -3.82505105	    -16.98474811	      0.00000000	    -18.55915474	      7.55607733	      6.30915459
      0.43000000	     -2.72858700	     -5.39019868	     -4.07039090	      0.71316531	      0.87592565	     -0.19685929	      5.07745373	     11.60701873	      1.29213575	     37.21191499	      0.64947044	     22.50563806	     -6.84318036	      0.00000000	     28.66528816	     -3.22660798	      3.65606218	    103.27370565	      1.80246619	     -3.30588700	    -16.96486162	      0.00000000	    -17.88961382	      6.86859654	      6.72412645
      0.43500000	     -2.91261924	     -4.92569339	     -3.93281247	      0.72691105	      0.87852889	     -0.19664036	      3.52015987	     11.29634666	      2.23588925	     35.49069181	      0.61942943	     20.98113692	     -8.27760013	      0.00000000	     30.05758347	     -2.61822686	      3.46962813	    102.32500728	      1.78590828	     -2.44728734	    -16.33937761	      0.00000000	    -17.57007160	      6.33532935	      7.21908717
      0.44000000	     -3.37626765	     -4.26180861	     -3.68386554	      0.74075515	      0.88060815	     -0.19685864	      2.48915472	     10.55663961	      2.31147975	     34.22011156	      0.59725362	     20.24050417	     -7.96552738	      0.00000000	     31.71761289	     -1.69458427	      3.30251105	    101.28692254	      1.76779029	     -1.93003792	    -16.33629975	      0.00000000	    -16.77639293	      5.65520144	      7.59527951
      0.44500000	     -3.46862482	     -3.64001935	     -3.51104193	      0.75483325	      0.88361032	     -0.19693481	      0.85585339	      9.93509398	      2.92910413	     32.49909424	      0.56721620	     18.66315918	     -8.75799067	      0.00000000	     32.81240122	     -0.92727614	      2.94498859	     99.96965358	      1.74479961	     -1.29056782	    -15.96854874	      0.00000000	    -16.51738591	      4.94418197	      7.86254220
      0.45000000	     -3.68731680	     -3.00389308	     -3.30586066	      0.76887160	      0.88669412	     -0.19715844	     -0.62377502	      9.23785378	      3.23929912	     30.72669628	      0.53628202	     17.13274509	     -9.42867876	      0.00000000	     33.97676646	     -0.06163693	      2.61774085	     98.52822683	      1.71964196	     -0.67342711	    -15.66030201	      0.00000000	    -16.14784119	      4.22210001	      8.17511265
      0.45500000	     -4.02302112	     -2.23195727	     -3.17974102	      0.78307155	      0.88966532	     -0.19743951	     -1.88864115	      8.34032600	      3.40293870	     29.12147761	      0.50826567	     15.80576887	     -8.95394055	      0.00000000	     35.17822671	      0.96003384	      2.20956766	     96.90921619	      1.69138490	     -0.60109391	    -15.57977644	      0.00000000	    -15.60979539	      3.33019904	      8.54299110
      0.46000000	     -4.02758426	     -1.57957283	     -3.01148708	      0.79723753	      0.89339177	     -0.19757104	     -3.62675452	      7.64952859	      3.81083857	     27.20367170	      0.47479364	     13.51180495	    -10.06581521	      0.00000000	     35.86519347	      1.77855278	      1.76926683	     95.12453625	      1.66023636	     -0.42926587	    -15.67668582	      0.00000000	    -15.46667720	      2.57535111	      8.83005903
      0.46500000	     -4.40502468	     -0.84246708	     -2.85794157	      0.81158746	      0.89643241	     -0.19801989	     -4.78488635	      6.70236941	      3.49217415	     25.67499606	      0.44811322	     12.00286238	     -9.42543343	      0.00000000	     36.96765290	      2.70763568	      1.30598032	     93.33622009	      1.62902435	      0.00314408	    -15.50411593	      0.00000000	    -14.77564683	      1.78683317	      9.22379189
